<svg width="551" height="191" viewBox="0 0 551 191" fill="none" xmlns="http://www.w3.org/2000/svg">
<path d="M0.425842 1.53792L289.403 1L289.754 189.621L0.77695 190.159L0.425842 1.53792Z" fill="#1A1A1A"/>
<path d="M34.2615 140.412L34.0808 43.3504L53.3376 43.3146L53.4021 77.989L62.5379 77.972L62.4734 43.2976L81.7301 43.2617L81.9108 140.323L62.654 140.359L62.572 96.2974L53.4363 96.3144L53.5183 140.376L34.2615 140.412Z" fill="white"/>
<path d="M87.8791 140.312L97.0581 43.2332L129.839 43.1722L139.245 140.216L120.884 140.251L119.512 124.533L107.778 124.555L106.688 140.277L87.8791 140.312ZM109.227 109.101L118.005 109.085L113.614 59.6863L112.718 59.6879L109.227 109.101Z" fill="white"/>
<path d="M144.934 43.1441L171.177 43.0953C178.219 43.0821 183.339 44.8131 186.547 48.2768C189.744 51.7181 191.356 57.3632 191.37 65.2009L191.378 69.4678C191.396 78.754 188.103 84.2959 181.512 86.1048C185.567 87.1752 188.427 89.629 190.079 93.4549C191.721 97.2921 192.559 102.377 192.571 108.721C192.59 119.029 191.06 126.848 188.002 132.176C184.933 137.481 179.385 140.142 171.357 140.157L145.114 140.206L144.934 43.1441ZM167.841 79.5726C169.509 79.5695 170.639 78.9611 171.241 77.7248C171.832 76.466 172.131 74.7138 172.127 72.468L172.109 62.7664C172.103 59.5999 170.712 58.008 167.935 58.0131L163.86 58.0207L163.9 79.58L167.841 79.5726ZM165.907 123.099C170.945 123.09 173.471 120.682 173.462 115.854L173.439 103.772C173.434 100.841 172.993 98.6295 172.128 97.1265C171.252 95.601 169.728 94.8403 167.556 94.8443L163.929 94.8511L163.981 123.013L165.907 123.099Z" fill="white"/>
<path d="M198.136 140.107L197.955 43.0454L216.675 43.0106L216.855 140.072L198.136 140.107Z" fill="white"/>
<path d="M232.979 140.042L232.833 61.6203L221.324 61.6417L221.289 43.002L263.654 42.9231L263.688 61.5628L252.224 61.5842L252.37 140.006L232.979 140.042Z" fill="white"/>
<mask id="mask0_0_1" style="mask-type:luminance" maskUnits="userSpaceOnUse" x="289" y="-1" width="262" height="194">
<path d="M289.458 -0.514511L550.275 -1.00001L550.634 191.596L289.817 192.081L289.458 -0.514511Z" fill="white"/>
</mask>
<g mask="url(#mask0_0_1)">
<path d="M290.357 1.22429L553.76 0.733977L554.111 189.355L290.708 189.845L290.357 1.22429Z" fill="white"/>
</g>
<path d="M314.181 145.152L314 48.0902L333.928 48.0531L342.927 94.4787L342.84 48.0365L361.515 48.0017L361.696 145.063L342.797 145.098L332.989 96.5184L333.079 145.116L314.181 145.152Z" fill="#1A1A1A"/>
<path d="M393.348 145.903C385.556 145.917 379.618 143.548 375.556 138.794C371.483 134.018 369.444 127.285 369.428 118.594L369.342 72.3761C369.326 64.0219 371.341 57.7188 375.397 53.4555C379.442 49.2035 385.372 47.059 393.164 47.0445C400.979 47.03 406.928 49.1524 411 53.3893C415.06 57.6374 417.11 63.933 417.125 72.2872L417.211 118.505C417.228 127.252 415.203 134.004 411.159 138.773C407.103 143.519 401.163 145.888 393.348 145.903ZM393.315 128.071C395.039 128.068 396.202 127.325 396.804 125.819C397.428 124.291 397.737 122.168 397.732 119.439L397.644 72.009C397.64 69.8868 397.346 68.1693 396.784 66.8454C396.21 65.5327 395.056 64.8723 393.332 64.8755C390.107 64.8815 388.5 67.3436 388.509 72.2506L388.597 119.591C388.602 122.376 388.931 124.486 389.594 125.922C390.279 127.358 391.524 128.075 393.315 128.071Z" fill="#1A1A1A"/>
<path d="M433.901 144.929L421.807 47.7548L440.258 47.7204L447.502 113.822L453.693 47.6954L472.144 47.6611L460.412 144.879L433.901 144.929Z" fill="#1A1A1A"/>
<path d="M475.272 144.852L484.451 47.7729L517.232 47.7119L526.638 144.756L508.277 144.79L506.904 129.073L495.171 129.094L494.08 144.817L475.272 144.852ZM496.62 113.641L505.397 113.625L501.006 64.226L500.111 64.2276L496.62 113.641Z" fill="#1A1A1A"/>
</svg>
