<svg xmlns="http://www.w3.org/2000/svg" xmlns:xlink="http://www.w3.org/1999/xlink" width="250" zoomAndPan="magnify" viewBox="0 0 187.5 93.749996" height="125" preserveAspectRatio="xMidYMid meet" version="1.2"><defs><clipPath id="061cfe050e"><path d="M 96 13 L 187 13 L 187 80 L 96 80 Z M 96 13 "/></clipPath></defs><g id="cd62dcbd1b"><g style="fill:#ffffff;fill-opacity:1;"><g transform="translate(5.369795, 61.85989)"><path style="stroke:none" d="M 1.5 0 L 1.5 -33.765625 L 8.21875 -33.765625 L 8.21875 -21.703125 L 11.40625 -21.703125 L 11.40625 -33.765625 L 18.125 -33.765625 L 18.125 0 L 11.40625 0 L 11.40625 -15.328125 L 8.21875 -15.328125 L 8.21875 0 Z M 1.5 0 "/></g></g><g style="fill:#ffffff;fill-opacity:1;"><g transform="translate(24.983418, 61.85989)"><path style="stroke:none" d="M 0.59375 0 L 3.859375 -33.765625 L 15.296875 -33.765625 L 18.515625 0 L 12.109375 0 L 11.640625 -5.46875 L 7.546875 -5.46875 L 7.15625 0 Z M 8.0625 -10.84375 L 11.125 -10.84375 L 9.625 -28.03125 L 9.3125 -28.03125 Z M 8.0625 -10.84375 "/></g></g><g style="fill:#ffffff;fill-opacity:1;"><g transform="translate(44.046766, 61.85989)"><path style="stroke:none" d="M 1.5 -33.765625 L 10.65625 -33.765625 C 13.113281 -33.765625 14.898438 -33.160156 16.015625 -31.953125 C 17.128906 -30.753906 17.6875 -28.789062 17.6875 -26.0625 L 17.6875 -24.578125 C 17.6875 -21.347656 16.535156 -19.421875 14.234375 -18.796875 C 15.648438 -18.421875 16.644531 -17.566406 17.21875 -16.234375 C 17.789062 -14.898438 18.078125 -13.128906 18.078125 -10.921875 C 18.078125 -7.335938 17.539062 -4.617188 16.46875 -2.765625 C 15.394531 -0.921875 13.457031 0 10.65625 0 L 1.5 0 Z M 9.46875 -21.078125 C 10.050781 -21.078125 10.445312 -21.289062 10.65625 -21.71875 C 10.863281 -22.15625 10.96875 -22.765625 10.96875 -23.546875 L 10.96875 -26.921875 C 10.96875 -28.023438 10.484375 -28.578125 9.515625 -28.578125 L 8.09375 -28.578125 L 8.09375 -21.078125 Z M 8.765625 -5.9375 C 10.523438 -5.9375 11.40625 -6.773438 11.40625 -8.453125 L 11.40625 -12.65625 C 11.40625 -13.675781 11.253906 -14.445312 10.953125 -14.96875 C 10.648438 -15.5 10.117188 -15.765625 9.359375 -15.765625 L 8.09375 -15.765625 L 8.09375 -5.96875 Z M 8.765625 -5.9375 "/></g></g><g style="fill:#ffffff;fill-opacity:1;"><g transform="translate(62.874273, 61.85989)"><path style="stroke:none" d="M 1.171875 0 L 1.171875 -33.765625 L 7.703125 -33.765625 L 7.703125 0 Z M 1.171875 0 "/></g></g><g style="fill:#ffffff;fill-opacity:1;"><g transform="translate(71.796706, 61.85989)"><path style="stroke:none" d="M 4.40625 0 L 4.40625 -27.28125 L 0.390625 -27.28125 L 0.390625 -33.765625 L 15.171875 -33.765625 L 15.171875 -27.28125 L 11.171875 -27.28125 L 11.171875 0 Z M 4.40625 0 "/></g></g><g clip-rule="nonzero" clip-path="url(#061cfe050e)"><path style=" stroke:none;fill-rule:nonzero;fill:#ffffff;fill-opacity:1;" d="M 96.3125 13.605469 L 188.214844 13.605469 L 188.214844 79.222656 L 96.3125 79.222656 L 96.3125 13.605469 "/></g><g style="fill:#1a1a1a;fill-opacity:1;"><g transform="translate(104.173533, 61.85989)"><path style="stroke:none" d="M 1.5 0 L 1.5 -33.765625 L 8.453125 -33.765625 L 11.5625 -17.609375 L 11.5625 -33.765625 L 18.078125 -33.765625 L 18.078125 0 L 11.484375 0 L 8.09375 -16.90625 L 8.09375 0 Z M 1.5 0 "/></g></g><g style="fill:#1a1a1a;fill-opacity:1;"><g transform="translate(123.747849, 61.85989)"><path style="stroke:none" d="M 9.546875 0.3125 C 6.828125 0.3125 4.757812 -0.515625 3.34375 -2.171875 C 1.925781 -3.835938 1.21875 -6.179688 1.21875 -9.203125 L 1.21875 -25.28125 C 1.21875 -28.1875 1.925781 -30.378906 3.34375 -31.859375 C 4.757812 -33.335938 6.828125 -34.078125 9.546875 -34.078125 C 12.273438 -34.078125 14.347656 -33.335938 15.765625 -31.859375 C 17.179688 -30.378906 17.890625 -28.1875 17.890625 -25.28125 L 17.890625 -9.203125 C 17.890625 -6.160156 17.179688 -3.8125 15.765625 -2.15625 C 14.347656 -0.507812 12.273438 0.3125 9.546875 0.3125 Z M 9.546875 -5.890625 C 10.148438 -5.890625 10.554688 -6.148438 10.765625 -6.671875 C 10.984375 -7.203125 11.09375 -7.941406 11.09375 -8.890625 L 11.09375 -25.390625 C 11.09375 -26.128906 10.992188 -26.726562 10.796875 -27.1875 C 10.597656 -27.644531 10.195312 -27.875 9.59375 -27.875 C 8.46875 -27.875 7.90625 -27.019531 7.90625 -25.3125 L 7.90625 -8.84375 C 7.90625 -7.875 8.019531 -7.140625 8.25 -6.640625 C 8.488281 -6.140625 8.921875 -5.890625 9.546875 -5.890625 Z M 9.546875 -5.890625 "/></g></g><g style="fill:#1a1a1a;fill-opacity:1;"><g transform="translate(142.850493, 61.85989)"><path style="stroke:none" d="M 4.59375 0 L 0.4375 -33.8125 L 6.875 -33.8125 L 9.359375 -10.8125 L 11.5625 -33.8125 L 18 -33.8125 L 13.84375 0 Z M 4.59375 0 "/></g></g><g style="fill:#1a1a1a;fill-opacity:1;"><g transform="translate(161.284942, 61.85989)"><path style="stroke:none" d="M 0.59375 0 L 3.859375 -33.765625 L 15.296875 -33.765625 L 18.515625 0 L 12.109375 0 L 11.640625 -5.46875 L 7.546875 -5.46875 L 7.15625 0 Z M 8.0625 -10.84375 L 11.125 -10.84375 L 9.625 -28.03125 L 9.3125 -28.03125 Z M 8.0625 -10.84375 "/></g></g></g></svg>