<svg xmlns="http://www.w3.org/2000/svg" xmlns:xlink="http://www.w3.org/1999/xlink" width="500" zoomAndPan="magnify" viewBox="0 0 375 374.999991" height="500" preserveAspectRatio="xMidYMid meet" version="1.2"><g id="efdab0b7f5"><rect x="0" width="375" y="0" height="374.999991" style="fill:#ffffff;fill-opacity:1;stroke:none;"/><rect x="0" width="375" y="0" height="374.999991" style="fill:#1a1a1a;fill-opacity:1;stroke:none;"/><path style=" stroke:none;fill-rule:nonzero;fill:#ffffff;fill-opacity:1;" d="M 294.75 320.460938 C 294.75 320.460938 180.011719 328.488281 169.1875 328.875 C 169.1875 328.875 163.488281 311.675781 160.300781 298.914062 C 158.75 292.625 157.5 288.289062 148.800781 288.476562 C 140.101562 288.664062 125.898438 292.925781 108.5 294.074219 C 91.101562 295.226562 78.539062 290.601562 78.539062 280.351562 C 78.539062 270.101562 82.210938 265.273438 81.824219 257.925781 C 81.4375 250.574219 77.375 250.386719 75.0625 247.488281 C 72.738281 244.585938 72.0625 240.335938 78.449219 238.5 C 78.449219 238.5 69.273438 235.5 68.976562 230.386719 C 68.675781 225.273438 75.738281 224.585938 74.289062 218.988281 C 72.835938 213.386719 67.914062 210.875 61.914062 207.675781 C 55.925781 204.488281 52.050781 202.164062 53.886719 195.398438 C 55.726562 188.636719 62.585938 185.351562 69.449219 178.101562 C 76.3125 170.851562 83.460938 160.414062 83.75 151.914062 C 84.039062 143.414062 82.300781 125.625 86.5 109.25 C 90.699219 92.875 105.585938 74.125 142.5 57.113281 C 156.226562 50.925781 197.976562 38.175781 241.851562 53.050781 C 285.726562 67.925781 310.074219 97.886719 318.585938 129.011719 C 327.085938 160.125 316.261719 187.574219 300.039062 210 C 283.800781 232.425781 272.398438 242.476562 274.335938 260.835938 C 276.261719 279.199219 294.75 320.460938 294.75 320.460938 Z M 294.75 320.460938 "/><path style=" stroke:none;fill-rule:nonzero;fill:#1a1a1a;fill-opacity:1;" d="M 291.824219 131.824219 C 300.039062 115.101562 287.085938 106.398438 287.085938 106.398438 C 284.085938 75.773438 260.226562 77.125 260.226562 77.125 C 253.5625 69.875 246.011719 65.824219 237.226562 64.476562 C 218.960938 62.148438 214.800781 71.039062 214.800781 71.039062 C 204.460938 57.226562 194.039062 66.988281 194.039062 66.988281 C 171.050781 59.925781 158.851562 74.324219 156.710938 77.324219 C 135.648438 75.386719 132.835938 87.289062 132.835938 87.289062 C 114.386719 93.476562 114.1875 109.324219 114.1875 109.324219 C 93.601562 123.050781 104.523438 145.851562 104.523438 145.851562 C 102 169.148438 123.074219 171.5625 126.75 170.789062 C 132.550781 178.914062 144.824219 178.625 147.523438 176.585938 C 155.351562 186.351562 168.398438 179.875 168.398438 179.875 C 177 188 192.75 186.164062 192.75 186.164062 C 192.9375 208.101562 210.148438 211.488281 215.363281 212.550781 C 220.585938 213.613281 224.164062 218.164062 225.613281 222.210938 C 227.0625 226.273438 226.773438 236.613281 241.175781 233.136719 C 255.574219 229.664062 254.800781 218.261719 252.863281 215.261719 C 250.925781 212.273438 249.875 208.601562 250.0625 206.460938 C 255.675781 205.789062 262.039062 196.699219 262.039062 196.699219 C 277.011719 196.601562 283.976562 183.5625 286.6875 176.789062 C 289.386719 170.023438 290.164062 163.648438 293.648438 152.238281 C 297.136719 140.8125 291.824219 131.824219 291.824219 131.824219 Z M 199.136719 155.699219 C 199.425781 160.050781 199.710938 171.738281 197.585938 176.863281 C 195.460938 181.988281 180.273438 180.636719 168.988281 171.9375 C 168.988281 171.9375 160.101562 178.023438 153.226562 173.386719 C 153.226562 173.386719 160.085938 159.851562 161.636719 149.613281 C 163.1875 139.363281 161.148438 136.5625 157 136.273438 C 152.835938 135.988281 146.761719 140.050781 149.460938 147.488281 C 152.164062 154.925781 154.675781 159.761719 151.300781 165.75 C 147.914062 171.75 134.863281 173 130.136719 164.199219 C 130.136719 164.199219 108.488281 166.425781 111.875 144.488281 C 111.875 144.488281 107.710938 135.886719 109.074219 128.539062 C 110.425781 121.199219 118.351562 115.300781 119.414062 114.136719 C 120.476562 112.976562 121.25 111.148438 122.113281 108.335938 C 122.988281 105.539062 124.824219 98.574219 135.75 94.324219 C 137.675781 93.550781 138.375 92.675781 138.898438 91.136719 C 139.414062 89.585938 142.226562 85.050781 150.726562 84.363281 C 159.226562 83.6875 161.0625 87.9375 160.011719 94.039062 C 158.949219 100.125 153.925781 106.886719 151.886719 110.273438 C 149.863281 113.664062 150.050781 117.324219 153.914062 118.113281 C 157.773438 118.886719 160.675781 114.539062 162.613281 106.511719 C 164.550781 98.5 167.4375 86.601562 161.835938 82.550781 C 161.835938 82.550781 173.539062 69.210938 193.148438 73.851562 C 195.085938 74.523438 196.273438 74.6875 198.238281 72.863281 C 200.210938 71.039062 203.488281 69.851562 206.386719 72.863281 C 209.289062 75.875 209.960938 82.148438 206.875 94.523438 C 203.773438 106.898438 199.460938 120.425781 198.238281 127.101562 C 197.011719 133.761719 198.851562 151.351562 199.136719 155.699219 Z M 287.1875 150.574219 C 285.25 161.789062 281.863281 173.574219 276.648438 181.113281 C 271.4375 188.648438 264.085938 189.523438 261.476562 189.914062 C 258.863281 190.300781 255.875 192.613281 254.425781 194.648438 C 252.976562 196.675781 250.460938 201.125 242.636719 199.863281 C 234.800781 198.613281 236.550781 180.148438 239.636719 169.425781 C 242.738281 158.699219 241.960938 151.9375 240.023438 144.6875 C 238.085938 137.4375 235.675781 135.011719 232 136.273438 C 228.324219 137.523438 229.585938 143.523438 232 147.199219 C 234.414062 150.863281 237.414062 152.226562 237.125 158.800781 C 236.835938 165.375 234.039062 179 232.960938 184.898438 C 231.898438 190.789062 232.914062 202.585938 242.726562 204.125 C 242.726562 204.125 242.824219 209.539062 244.75 214.851562 C 246.6875 220.175781 247.363281 221.8125 244.363281 224.3125 C 241.375 226.835938 234.988281 228.273438 233.738281 224.3125 C 232.476562 220.351562 231.324219 214.175781 225.710938 209.335938 C 220.113281 204.511719 216.4375 207.011719 210.0625 203.4375 C 210.0625 203.4375 199.136719 198.699219 200.011719 186.136719 C 200.398438 180.148438 203.101562 172.023438 203.386719 164.101562 C 203.675781 156.175781 202.710938 139.9375 202.710938 133.949219 C 202.710938 127.949219 204.835938 118 206.875 111.039062 C 208.898438 104.074219 213.738281 86.886719 217.601562 79.824219 C 221.460938 72.773438 227.460938 69.875 239.148438 72.1875 C 244.761719 73.738281 254.613281 78.375 253.363281 81.5625 C 252.101562 84.75 246.199219 92.199219 247.460938 108.914062 C 248.710938 125.625 256.550781 128.8125 259.4375 142.25 C 260.601562 148.050781 260.125 155 258.375 159.539062 C 256.636719 164.074219 256.050781 170.074219 260.699219 171.039062 C 265.335938 172.011719 266.5 167.273438 265.914062 160.800781 C 265.335938 154.324219 264.175781 140.886719 259.625 130.738281 C 255.085938 120.601562 250.824219 112.863281 251.898438 101.75 C 252.960938 90.636719 254.414062 82.039062 264.851562 84.460938 C 275.289062 86.875 279.726562 100.988281 280.601562 106.011719 C 280.789062 109.199219 279.914062 110.550781 282.050781 111.914062 C 284.175781 113.261719 288.8125 116.9375 287.5625 123.601562 C 286.300781 130.261719 283.699219 130.175781 285.335938 133.261719 C 286.988281 136.375 289.113281 139.363281 287.1875 150.574219 Z M 287.1875 150.574219 "/></g></svg>