<svg width="521" height="190" viewBox="0 0 521 190" fill="none" xmlns="http://www.w3.org/2000/svg">
<path d="M0.261516 140.412L0.0808411 43.3504L19.3376 43.3146L19.4021 77.989L28.5379 77.972L28.4734 43.2976L47.7301 43.2617L47.9108 140.323L28.654 140.359L28.572 96.2974L19.4363 96.3144L19.5183 140.376L0.261516 140.412Z" fill="white"/>
<path d="M53.8791 140.312L63.0581 43.2332L95.8394 43.1722L105.245 140.216L86.8843 140.251L85.5115 124.533L73.7784 124.555L72.688 140.277L53.8791 140.312ZM75.2274 109.101L84.0049 109.085L79.6138 59.6863L78.7181 59.6879L75.2274 109.101Z" fill="white"/>
<path d="M110.934 43.1441L137.177 43.0953C144.219 43.0821 149.339 44.8131 152.547 48.2768C155.744 51.7181 157.356 57.3632 157.37 65.2009L157.378 69.4678C157.396 78.754 154.103 84.2959 147.512 86.1048C151.567 87.1752 154.427 89.629 156.079 93.4549C157.721 97.2921 158.559 102.377 158.571 108.721C158.59 119.029 157.06 126.848 154.002 132.176C150.933 137.481 145.385 140.142 137.357 140.157L111.114 140.206L110.934 43.1441ZM133.841 79.5726C135.509 79.5695 136.639 78.9611 137.241 77.7248C137.832 76.466 138.131 74.7138 138.127 72.468L138.109 62.7664C138.103 59.5999 136.712 58.008 133.935 58.0131L129.86 58.0207L129.9 79.58L133.841 79.5726ZM131.907 123.099C136.945 123.09 139.471 120.682 139.462 115.854L139.439 103.772C139.434 100.841 138.993 98.6295 138.128 97.1265C137.252 95.601 135.728 94.8403 133.556 94.8443L129.929 94.8511L129.981 123.013L131.907 123.099Z" fill="white"/>
<path d="M164.136 140.107L163.955 43.0454L182.675 43.0106L182.855 140.072L164.136 140.107Z" fill="white"/>
<path d="M198.979 140.042L198.833 61.6203L187.324 61.6417L187.289 43.002L229.654 42.9231L229.688 61.5628L218.224 61.5842L218.37 140.006L198.979 140.042Z" fill="white"/>
<path d="M520.111 189.354L256.708 189.845L256.357 1.22395L519.76 0.733642L520.111 189.354ZM359.164 47.0444C351.372 47.059 345.442 49.2036 341.397 53.4554C337.341 57.7186 335.326 64.0218 335.342 72.3759L335.428 118.594C335.444 127.285 337.483 134.018 341.556 138.794C345.618 143.547 351.556 145.917 359.348 145.903C367.162 145.888 373.103 143.519 377.159 138.773C381.203 134.004 383.228 127.252 383.212 118.505L383.126 72.2869C383.11 63.9328 381.06 57.6372 377 53.3891C372.928 49.1523 366.978 47.0298 359.164 47.0444ZM280.181 145.152L299.079 145.116L298.989 96.5188L308.797 145.098L327.696 145.063L327.515 48.0017L308.84 48.0365L308.927 94.4788L299.928 48.0531L280 48.0902L280.181 145.152ZM399.901 144.929L426.412 144.879L438.143 47.661L419.693 47.6954L413.502 113.822L406.258 47.7204L387.808 47.7547L399.901 144.929ZM450.45 47.7729L441.272 144.852L460.08 144.817L461.171 129.095L472.904 129.073L474.276 144.79L492.638 144.756L483.231 47.7119L450.45 47.7729ZM359.332 64.8752C361.056 64.8719 362.21 65.5327 362.783 66.8453C363.346 68.1692 363.64 69.8866 363.644 72.0087L363.732 119.439C363.737 122.168 363.427 124.291 362.803 125.819C362.202 127.325 361.038 128.068 359.314 128.072C357.523 128.075 356.279 127.358 355.594 125.922C354.93 124.486 354.602 122.376 354.596 119.591L354.508 72.2504C354.499 67.3436 356.107 64.8812 359.332 64.8752ZM467.006 64.2255L471.397 113.625L462.62 113.641L466.111 64.2272L467.006 64.2255Z" fill="white"/>
</svg>
