<svg width="358" height="378" viewBox="0 0 358 378" fill="none" xmlns="http://www.w3.org/2000/svg">
<path d="M119 15.1506C137.302 6.90062 192.968 -10.0986 251.468 9.73459C309.968 29.5679 342.432 69.5158 353.781 111.016C365.114 152.5 350.682 189.099 329.052 219C307.401 248.901 292.197 262.302 294.781 286.781C297.348 311.262 321.992 366.265 322 366.281C321.689 366.303 169.002 376.985 154.584 377.5C154.584 377.5 146.984 354.568 142.734 337.552C140.666 329.167 139 323.385 127.401 323.635C115.802 323.885 96.8644 329.568 73.6665 331.099C50.4687 332.635 33.7183 326.469 33.7183 312.802C33.7183 299.135 38.6148 292.697 38.0991 282.901C37.5834 273.099 32.1668 272.849 29.0835 268.985C25.9846 265.115 25.0835 259.448 33.5991 257C33.5991 257 21.3641 253 20.9683 246.182C20.5677 239.365 29.9842 238.448 28.0523 230.985C26.1148 223.516 19.5523 220.166 11.5523 215.901C3.56795 211.651 -1.59868 208.552 0.849136 199.531C3.30226 190.516 12.4481 186.136 21.5991 176.469C30.7502 166.802 40.2811 152.885 40.6665 141.552C41.0519 130.219 38.7346 106.499 44.3335 84.6662C49.9326 62.833 69.7813 37.8327 119 15.1506ZM215.401 33.719C201.614 15.3023 187.718 28.3176 187.718 28.3176C157.068 18.9013 140.802 38.0989 137.948 42.0988C109.951 39.5235 106.138 55.2881 106.115 55.385C81.5158 63.635 81.2495 84.7658 81.2495 84.7658C53.8022 103.068 68.3648 133.469 68.3648 133.469C65.0004 164.53 93.0971 167.75 97.9995 166.719C105.734 177.552 122.099 177.166 125.698 174.447C136.109 187.435 153.442 178.877 153.531 178.833C164.967 189.636 185.882 187.233 186 187.219C186.25 216.468 209.198 220.984 216.151 222.401C223.114 223.817 227.886 229.886 229.818 235.281C231.75 240.698 231.365 254.484 250.568 249.849C269.766 245.219 268.734 230.016 266.151 226.016C263.568 222.032 262.167 217.136 262.417 214.281C269.882 213.388 278.343 201.326 278.385 201.266C298.349 201.136 307.636 183.75 311.251 174.719C314.849 165.698 315.886 157.198 320.532 141.985C325.171 126.789 318.135 114.826 318.099 114.766C329.027 92.5204 311.861 80.9178 311.782 80.8645C307.791 40.1228 276.111 41.8254 275.969 41.8332C267.084 32.1666 257.016 26.7659 245.302 24.969C220.948 21.8648 215.401 33.719 215.401 33.719ZM219.135 45.4319C224.281 36.031 232.282 32.1669 247.865 35.2502C255.349 37.318 268.485 43.5003 266.818 47.7502C265.135 52.0003 257.265 61.9327 258.948 84.219C260.614 106.5 271.067 110.75 274.917 128.666C276.469 136.401 275.834 145.667 273.501 151.719C271.183 157.766 270.401 165.766 276.599 167.052C282.781 168.349 284.334 162.031 283.552 153.401C282.781 144.765 281.234 126.849 275.167 113.318C269.114 99.802 263.432 89.4839 264.865 74.6662C266.281 59.8488 268.219 48.3855 282.135 51.6145C296.052 54.8332 301.969 73.6508 303.135 80.3488C303.385 84.5988 302.219 86.4013 305.068 88.219C307.901 90.0159 314.083 94.9168 312.417 103.802C310.734 112.682 307.266 112.568 309.448 116.682C311.651 120.833 314.484 124.818 311.917 139.766C309.333 154.719 304.818 170.433 297.865 180.485C290.917 190.531 281.114 191.698 277.635 192.219C274.151 192.735 270.167 195.818 268.235 198.531C266.303 201.235 262.948 207.167 252.516 205.485C242.068 203.818 244.402 179.197 248.516 164.901C252.651 150.599 251.615 141.583 249.032 131.916C246.448 122.25 243.234 119.015 238.334 120.697C233.432 122.364 235.115 130.365 238.334 135.266C241.552 140.151 245.552 141.969 245.167 150.735C244.781 159.5 241.052 177.667 239.615 185.531C238.198 193.386 239.552 209.114 252.635 211.166C252.635 211.166 252.766 218.386 255.334 225.469C257.917 232.568 258.818 234.75 254.818 238.083C250.834 241.448 242.318 243.364 240.651 238.083C238.969 232.802 237.432 224.568 229.948 218.114C222.484 211.682 217.583 215.016 209.084 210.25C209.084 210.25 194.515 203.932 195.682 187.182C196.198 179.198 199.802 168.364 200.182 157.802C200.568 147.234 199.281 125.583 199.281 117.599C199.281 109.599 202.115 96.3332 204.834 87.052C207.531 77.7654 213.984 54.8485 219.135 45.4319ZM193.318 36.1506C195.948 33.7185 200.318 32.1355 204.182 36.1506C208.052 40.1662 208.948 48.5315 204.834 65.0315C200.698 81.5314 194.948 99.568 193.318 108.469C191.683 117.349 194.135 140.802 194.515 146.599C194.901 152.401 195.281 167.984 192.448 174.818C189.614 181.651 169.365 179.849 154.318 168.25C154.318 168.25 142.469 176.364 133.302 170.182C133.352 170.083 142.453 152.098 144.515 138.485C146.583 124.818 143.865 121.083 138.334 120.697C132.782 120.317 124.682 125.734 128.281 135.651C131.885 145.567 135.234 152.016 130.734 160C126.218 168 108.817 169.666 102.515 157.932C102.387 157.945 73.6609 160.836 78.1665 131.651C78.1287 131.572 72.6207 120.148 74.4321 110.385C76.2344 100.599 86.8016 92.7339 88.2183 91.1819C89.6349 89.635 90.6668 87.1975 91.8179 83.4475C92.9846 79.7181 95.4328 70.4323 110 64.7658C112.567 63.7346 113.5 62.5678 114.198 60.5158C114.885 58.4482 118.635 52.4014 129.968 51.4846C141.301 50.5836 143.75 56.2498 142.349 64.385C140.932 72.4996 134.234 81.5158 131.515 86.0315C128.818 90.5521 129.068 95.4324 134.218 96.4846C139.364 97.5158 143.235 91.7189 145.818 81.0158C148.401 70.3335 152.25 54.4686 144.781 49.0676C144.781 49.0676 160.385 31.2817 186.531 37.469C189.114 38.3648 190.698 38.5829 193.318 36.1506Z" fill="white"/>
</svg>
